
<svg alt="animated lotus flower" version="1.1" id="lotus" xmlns="http://www.w3.org/2000/svg" xmlns:xlink="http://www.w3.org/1999/xlink" x="0px" y="0px"
	 viewBox="0 0 357 309" style="enable-background:new 0 0 357 309;" xml:space="preserve">
<style type="text/css">
	.st0{opacity:0.8;fill:#3D0069;stroke:#33142A;stroke-width:2;stroke-linecap:round;stroke-linejoin:round;stroke-miterlimit:10;}
</style>
<g>
<path class="st0 st2" d="M348.4,171c-3.1,4.5-6.3,9.1-9.3,13.7c-2.8,4.1-5.6,8.3-8.3,12.5c-3.1,4.8-6.3,9.5-9.2,14.4
		c-3.7,6.3-7.9,12.2-11.9,18.2c-4.9,7.3-10.1,14.3-15.5,21.3c-5.8,7.6-12.4,14.4-19.3,20.8c-5.4,4.9-11.4,9.4-18.2,12.1
		c-10.8,4.2-21.8,7.8-33.5,7.9c-8,0.1-15.8-0.8-23.5-3.4c-7.4-2.5-13.6-6.6-19.1-12c-3.5-3.4-6.4-7.3-8-11.7
		c-3.7-10.4-4.6-21.1-1.3-31.9c3.4-11,9-20.6,16.8-29.1c6.9-7.5,14.8-13.6,23.8-18.4c6.4-3.4,13.4-5.5,20.5-7.2
		c8.1-2,16.4-3.1,24.7-3.8c12.5-1,25-1.7,37.5-1.6c7.9,0.1,15.8-0.4,23.6-0.6c6.7-0.2,13.4-0.6,20.1-0.9c3.2-0.2,6.4-0.8,9.6-0.6"/>
	<path class="st0 st5" d="M9,177.9c5.5-0.1,11-0.2,16.5-0.4c5-0.1,10-0.3,15-0.5c5.7-0.3,11.4-0.5,17.1-0.9c7.2-0.6,14.5-0.7,21.7-0.9
		c8.8-0.3,17.6-0.1,26.3,0.2c9.6,0.3,18.9,1.7,28.2,3.6c7.1,1.5,14.3,3.7,20.4,7.7c9.7,6.3,19,13.2,25.9,22.7
		c4.7,6.5,8.5,13.3,10.9,21c2.3,7.4,2.5,14.9,1.4,22.5c-0.7,4.8-2.2,9.4-4.9,13.3c-6.3,9.1-14.4,16-25.2,19.6
		c-10.9,3.7-22,4.7-33.5,3.3c-10.1-1.2-19.7-4.1-28.8-8.6c-6.5-3.2-12.3-7.7-17.8-12.5c-6.3-5.4-12-11.6-17.4-17.9
		c-8.1-9.5-15.9-19.3-23.1-29.6c-4.5-6.4-9.5-12.6-14.3-18.9c-4.1-5.3-8.2-10.6-12.4-15.8c-2-2.5-4.4-4.7-6.1-7.5"/>
	<path class="st0 st4" d="M329.6,66.3c-1.2,7-2.3,14-3.5,20.9c-1,6.3-2,12.7-2.9,19c-1,7.2-2.1,14.5-2.8,21.8c-0.9,9.3-2.5,18.4-4,27.6
		c-1.7,11.1-4,22.2-6.5,33.2c-2.7,12-6.6,23.5-11.2,34.7c-3.6,8.7-8.1,17.1-14.6,24c-10.2,10.7-21.1,20.9-34.7,27.4
		c-9.3,4.4-18.8,7.6-29.1,8.8c-9.9,1.1-19.4-0.3-28.7-3.6c-5.9-2-11.4-5-15.6-9.3c-10-10.1-16.8-22-18.8-36.4
		c-2-14.7-0.7-28.9,3.8-43c4-12.5,9.9-23.9,17.7-34.3c5.6-7.5,12.7-13.6,19.9-19.5c8.4-6.7,17.4-12.5,26.7-17.8
		c13.9-8,28.1-15.5,42.7-22.2c9.2-4.2,18.1-9,27.2-13.6c7.7-3.9,15.3-7.9,22.9-11.9c3.6-1.9,7-4.4,10.9-6"/>
	<path class="st0 st3" d="M24.7,75.7c6.4,2.9,12.9,5.9,19.3,8.8c5.9,2.6,11.7,5.2,17.6,7.7c6.7,2.9,13.4,5.8,20.3,8.4
		c8.7,3.3,17.2,7.2,25.7,11c10.3,4.6,20.4,9.6,30.4,14.8c10.9,5.7,21,12.4,30.6,19.8c7.4,5.7,14.5,12.3,19.4,20.3
		c7.7,12.7,14.7,25.8,17.4,40.6c1.9,10.1,2.5,20.2,0.9,30.4c-1.5,9.9-5.3,18.7-10.9,26.8c-3.5,5.1-7.8,9.7-13,12.7
		c-12.3,7-25.6,10.5-40.1,8.7c-14.7-1.8-28.1-6.8-40.5-14.8c-11-7.1-20.5-15.7-28.6-26c-5.8-7.4-9.9-15.8-13.6-24.3
		c-4.3-9.8-7.5-20.1-10.2-30.4c-4.1-15.5-7.7-31.2-10.4-47c-1.7-10-3.9-19.8-6.1-29.7c-1.8-8.4-3.7-16.8-5.6-25.2
		c-0.9-4-2.4-7.9-2.9-12"/>
	
	<path class="st0 st1" d="M182,17c3.1,6.4,6.1,12.8,9.2,19.1c2.8,5.8,5.7,11.5,8.6,17.2c3.3,6.5,6.6,13.1,10.2,19.4
		c4.6,8.1,8.6,16.5,12.7,24.9c5,10.1,9.5,20.4,13.8,30.8c4.7,11.3,8.2,23,10.9,34.8c2.1,9.1,3.3,18.7,1.9,28
		c-2.2,14.7-5.2,29.2-12.6,42.4c-5,8.9-11,17.1-18.7,24c-7.5,6.6-16,10.9-25.5,13.7c-6,1.7-12.2,2.5-18.1,1.4
		c-14-2.5-26.4-8.3-36.4-18.9c-10.1-10.8-17.2-23.2-21.7-37.3c-4-12.5-5.7-25.2-5.3-38.2c0.3-9.4,2.5-18.4,5.1-27.4
		c3-10.3,7.1-20.2,11.6-29.9c6.8-14.5,14-28.9,22.1-42.8c5.1-8.7,9.7-17.8,14.4-26.7c4-7.6,7.9-15.3,11.8-22.9
		c1.9-3.7,3.2-7.6,5.4-11.1"/>
</g>
</svg>
